<?xml version="1.0" encoding="utf-8"?>
<!-- Generator: Adobe Illustrator 19.2.1, SVG Export Plug-In . SVG Version: 6.00 Build 0)  -->
<svg version="1.1" id="Calque_1" xmlns="http://www.w3.org/2000/svg" xmlns:xlink="http://www.w3.org/1999/xlink" x="0px" y="0px"
	 viewBox="0 0 500 500" style="enable-background:new 0 0 500 500;" xml:space="preserve">
<path d="M328.1,500.8c-0.1,0-0.2,0-0.2,0c0-0.5-0.1-0.9-0.1-1.4c0-143.3,0-286.6,0-429.8c0-1,0.3-1.5,1.2-1.9
	c42-19.4,84-38.9,126-58.3c6-2.8,12-5.6,18-8.4c0,144.2,0,288.4,0,432.6c-0.3,0.2-0.6,0.3-0.9,0.5c-47.6,22.1-95.2,44.1-142.8,66.2
	C328.8,500.3,328.5,500.6,328.1,500.8z"/>
<path d="M26.1,500.8c-0.1,0-0.2-0.1-0.2-0.1c0-0.3,0-0.6,0-0.9c0-143.8,0-287.7,0-431.5c0.3-0.1,0.5-0.2,0.8-0.3
	c47.6-22.1,95.2-44.1,142.8-66.2c0.4-0.2,0.9-0.4,1.6-0.7c0,0.7,0,1.2,0,1.8c0,143.1,0,286.1,0,429.2c0,1.2-0.3,1.8-1.4,2.3
	c-45.3,20.9-90.5,41.9-135.8,62.8C31.3,498.3,28.7,499.6,26.1,500.8z"/>
<path d="M176.8,0c0.1,0,0.2,0,0.2,0c0.3,0.2,0.7,0.4,1,0.5c47.6,22,95.2,44,142.8,66c0.9,0.4,1.2,0.9,1.2,1.9c0,143,0,286,0,429
	c0,0.4,0,0.8,0,1.4c-0.5-0.2-0.9-0.4-1.2-0.5c-47.4-21.9-94.9-43.9-142.4-65.8c-1.2-0.6-1.6-1.2-1.6-2.6c0-142.9,0-285.8,0-428.7
	C176.8,0.9,176.8,0.4,176.8,0z"/>
</svg>
